<svg xmlns="http://www.w3.org/2000/svg"  viewBox="0 0 64 64" width="64px" height="64px"><linearGradient id="Nk3hMLatEffE27uCf5EC1a" x1="32" x2="32" y1="7.207" y2="56.792" gradientUnits="userSpaceOnUse"><stop offset="0" stop-color="#8ab4ff"/><stop offset="1" stop-color="#e492ff"/></linearGradient><path fill="url(#Nk3hMLatEffE27uCf5EC1a)" d="M28.098,18.398c-2.389-0.685-4.881,0.696-5.566,3.085c-0.685,2.389,0.696,4.881,3.085,5.566 c2.389,0.685,4.881-0.696,5.566-3.085C31.869,21.575,30.487,19.083,28.098,18.398z M40.036,31.183 c2.389,0.685,4.881-0.696,5.566-3.085c0.685-2.389-0.696-4.881-3.085-5.566c-2.389-0.685-4.881,0.696-5.566,3.085 C36.266,28.006,37.647,30.498,40.036,31.183z M23.964,32.817c-2.389-0.685-4.881,0.696-5.566,3.085 c-0.685,2.389,0.696,4.881,3.085,5.566c2.389,0.685,4.881-0.696,5.566-3.085C27.734,35.994,26.353,33.502,23.964,32.817z M35.902,45.602c2.389,0.685,4.881-0.696,5.566-3.085c0.685-2.389-0.696-4.881-3.085-5.566c-2.389-0.685-4.881,0.696-5.566,3.085 C32.131,42.425,33.513,44.917,35.902,45.602z M9.057,33.579l-1.642,7.113c-0.994,4.307,1.689,8.6,5.995,9.595l7.113,1.642 C13.9,48.121,9.575,41.201,9.057,33.579z M30.421,9.057l-7.113-1.642c-4.307-0.994-8.6,1.689-9.595,5.995l-1.642,7.113 C15.878,13.9,22.799,9.575,30.421,9.057z M50.59,13.713l-7.113-1.642c6.623,3.807,10.947,10.728,11.466,18.35l1.642-7.113 C57.58,19.001,54.897,14.707,50.59,13.713z M33.579,54.943l7.113,1.642c4.307,0.994,8.6-1.689,9.595-5.995l1.642-7.113 C48.122,50.1,41.201,54.425,33.579,54.943z M34.884,32.827c0.457-1.593-0.464-3.254-2.057-3.711s-3.254,0.464-3.711,2.057 s0.464,3.254,2.057,3.711S34.427,34.42,34.884,32.827z"/><linearGradient id="Nk3hMLatEffE27uCf5EC1b" x1="32" x2="32" y1="10.997" y2="53.002" gradientUnits="userSpaceOnUse"><stop offset="0" stop-color="#1A6DFF"/><stop offset="1" stop-color="#C822FF"/></linearGradient><path fill="url(#Nk3hMLatEffE27uCf5EC1b)" d="M37.788,11.813C26.661,8.62,15.005,15.081,11.813,26.212 c-3.191,11.131,3.268,22.783,14.398,25.975c1.927,0.553,3.868,0.816,5.78,0.816c9.13,0,17.556-6.011,20.194-15.214c0,0,0,0,0,0 C55.378,26.657,48.919,15.005,37.788,11.813z M50.265,37.237c-2.889,10.072-13.432,15.917-23.502,13.027 c-10.07-2.887-15.914-13.43-13.027-23.5c2.389-8.328,10.011-13.765,18.271-13.765c1.729,0,3.487,0.238,5.23,0.738 C47.308,16.624,53.151,27.166,50.265,37.237z M32.145,24.239c0.836-2.916-0.855-5.967-3.771-6.803 c-1.411-0.404-2.897-0.236-4.183,0.477c-1.285,0.712-2.216,1.882-2.62,3.294c-0.405,1.412-0.236,2.898,0.476,4.183 c0.713,1.285,1.883,2.215,3.295,2.621c0.504,0.145,1.013,0.213,1.514,0.213C29.246,28.224,31.453,26.65,32.145,24.239 L32.145,24.239z M30.223,23.688c-0.532,1.855-2.472,2.935-4.33,2.399c-0.898-0.257-1.643-0.85-2.096-1.667 c-0.454-0.817-0.562-1.763-0.304-2.662c0.258-0.898,0.85-1.643,1.668-2.096c0.526-0.292,1.105-0.44,1.691-0.44 c0.324,0,0.65,0.045,0.971,0.137C29.678,19.891,30.754,21.833,30.223,23.688z M42.793,21.571c-1.411-0.404-2.897-0.236-4.183,0.477 s-2.216,1.882-2.62,3.294c-0.405,1.412-0.236,2.897,0.476,4.183c0.713,1.285,1.883,2.215,3.295,2.621 c0.504,0.145,1.013,0.213,1.514,0.213c2.391,0,4.598-1.574,5.289-3.984v0C47.399,25.458,45.708,22.407,42.793,21.571z M44.642,27.822c-0.532,1.855-2.473,2.934-4.33,2.4c-0.898-0.257-1.643-0.85-2.096-1.667c-0.454-0.818-0.562-1.763-0.304-2.662 c0.258-0.898,0.85-1.643,1.668-2.096c0.526-0.292,1.105-0.44,1.691-0.44c0.324,0,0.65,0.045,0.971,0.137 C44.097,24.025,45.173,25.967,44.642,27.822z M24.239,31.855c-2.914-0.836-5.967,0.857-6.803,3.771 c-0.836,2.915,0.855,5.967,3.771,6.803c0.503,0.144,1.015,0.215,1.524,0.215c0.92,0,1.831-0.233,2.658-0.692 c1.285-0.712,2.216-1.882,2.62-3.294c0.405-1.412,0.236-2.897-0.476-4.183C26.821,33.191,25.651,32.26,24.239,31.855z M26.088,38.106L26.088,38.106c-0.258,0.899-0.85,1.644-1.668,2.097c-0.818,0.454-1.764,0.561-2.662,0.303 c-1.854-0.532-2.931-2.474-2.399-4.329c0.44-1.534,1.845-2.536,3.367-2.536c0.318,0,0.642,0.044,0.963,0.136 c0.898,0.257,1.643,0.85,2.096,1.667C26.238,36.263,26.346,37.208,26.088,38.106z M38.658,35.99 c-2.907-0.835-5.967,0.855-6.803,3.771c-0.836,2.916,0.855,5.967,3.771,6.803c0.503,0.144,1.015,0.215,1.524,0.215 c0.92,0,1.831-0.233,2.658-0.692c1.285-0.712,2.216-1.882,2.62-3.294c0.405-1.412,0.236-2.898-0.476-4.183 C41.24,37.326,40.07,36.395,38.658,35.99z M40.507,42.241L40.507,42.241c-0.258,0.899-0.85,1.644-1.668,2.097 c-0.817,0.454-1.763,0.562-2.662,0.303c-1.854-0.532-2.931-2.474-2.399-4.329c0.44-1.534,1.845-2.536,3.367-2.536 c0.318,0,0.642,0.044,0.963,0.136c0.898,0.257,1.643,0.85,2.096,1.667C40.657,40.397,40.765,41.343,40.507,42.241z"/></svg>