<svg xmlns="http://www.w3.org/2000/svg"  viewBox="0 0 64 64" width="64px" height="64px"><linearGradient id="azWN6_xbMw20lHHI6u3o5a" x1="32.188" x2="32.188" y1="21.083" y2="57.087" gradientUnits="userSpaceOnUse" spreadMethod="reflect"><stop offset="0" stop-color="#8ab4ff"/><stop offset="1" stop-color="#e492ff"/></linearGradient><path fill="url(#azWN6_xbMw20lHHI6u3o5a)" d="M19,37l1,3l1-8l0.875,10l1.25-3l0.5-10l0.75,10l1,2L26.6,25.032L29.25,43l2.375-20l0.625,18 l0.869-2.375L34.75,29l1.875,11l0.84-3.129L38.375,25l1.697,13.625L40.5,40l2.125-8L43,38l1,2l0.75-6l0.5,7l2.125-4.351v-1.524 C46.25,33.438,44.645,30,42.625,30c-0.5,0-0.945,0-1.125,0c-1,0-0.559-4.021-1.5-5.5c-0.16-2.024-1.124-2.5-1.625-2.5 c-2,0-2,5-2.875,5c-0.869,0-1.793-4.016-2.125-4.875c-0.242-0.627-1-1.125-1.75-1.125c-2.75,0-1.989,5-2.625,5 c-0.25,0-0.007-0.103-0.625-1.75C28,23.25,27.25,23,26.625,23c-2,0-2.375,3-3.625,3.875c-3.875,3.5-3.875,3.375-4.5,9.125L17,35.625 v1.625L19,44V37z"/><linearGradient id="azWN6_xbMw20lHHI6u3o5b" x1="32.188" x2="32.188" y1="21.083" y2="57.087" gradientUnits="userSpaceOnUse" spreadMethod="reflect"><stop offset="0" stop-color="#8ab4ff"/><stop offset="1" stop-color="#e492ff"/></linearGradient><path fill="url(#azWN6_xbMw20lHHI6u3o5b)" d="M45.375,44l-0.5,4L43.5,43l-2,10L41,43l-1.362,2.64L39.375,54L37.03,43.009L34.875,53L34,43 l-2.75,12L30.5,43.004l-0.858,3.075L29.5,53l-2.875-11l-1.25,10l-1.383-7.675L23,43.5V52l-1.181-6.36L21,43v9l-1.375-7l-0.375,5 l-1.343-3.921L17,45.125v5.177C19.037,52.46,19.875,55,24,55c1.448,0,1.942-1.007,2.75-1c0.448,0.004,1.174,0.268,1.813,1.284 C29.25,56.375,30.128,57,30.75,57c1.25,0,2-0.125,2.75-2c0.381,0.6,0.708,1,1,1c0.914,0,1.555-1.962,2.375-2.022 c0.302-0.022,0.451,0.369,0.875,1.022c0.541,0.833,1.625,1,3.125,1c1.395,0,2.478-1.375,2.75-3.625c0.377-1.966,2.695-2.658,3.75-4 v-0.153L45.375,44z"/><linearGradient id="azWN6_xbMw20lHHI6u3o5c" x1="17" x2="17" y1="6.833" y2="54.705" gradientUnits="userSpaceOnUse" spreadMethod="reflect"><stop offset="0" stop-color="#1A6DFF"/><stop offset="1" stop-color="#C822FF"/></linearGradient><path fill="url(#azWN6_xbMw20lHHI6u3o5c)" d="M16,25v28c1.5,0,2-1,2-1V26C18,26,17.5,25,16,25z"/><linearGradient id="azWN6_xbMw20lHHI6u3o5d" x1="47" x2="47" y1="6.833" y2="54.705" gradientUnits="userSpaceOnUse" spreadMethod="reflect"><stop offset="0" stop-color="#1A6DFF"/><stop offset="1" stop-color="#C822FF"/></linearGradient><path fill="url(#azWN6_xbMw20lHHI6u3o5d)" d="M46,26v26c0,0,0.5,1,2,1V25C46.5,25,46,26,46,26z"/><linearGradient id="azWN6_xbMw20lHHI6u3o5e" x1="32" x2="32" y1="6.833" y2="54.705" gradientUnits="userSpaceOnUse" spreadMethod="reflect"><stop offset="0" stop-color="#1A6DFF"/><stop offset="1" stop-color="#C822FF"/></linearGradient><path fill="url(#azWN6_xbMw20lHHI6u3o5e)" d="M53.481,25.454v-1.326c0-4.853-2.519-9.215-6.397-12.263C43.206,8.816,37.949,7,32.185,7 c-0.062,0-0.308,0-0.37,0c-5.764,0-11.021,1.816-14.899,4.864c-3.878,3.049-6.397,7.411-6.397,12.263v1.326 C6.204,27.005,3,32.481,3,39c0,7.72,4.486,14,10,14h1l-0.004-28.872c0-3.634,1.864-6.979,5.066-9.496s7.722-4.124,12.753-4.124 c0.063,0,0.308,0,0.37,0c5.031,0,9.552,1.607,12.753,4.124s5.066,5.862,5.066,9.496L50,53h1c5.514,0,10-6.28,10-14 C61,32.481,57.796,27.005,53.481,25.454z M5,39c0-6.108,3.06-11.154,7-11.896v23.792C8.06,50.154,5,45.108,5,39z M52,50.896V27.104 c3.94,0.742,7,5.788,7,11.896S55.94,50.154,52,50.896z"/></svg>