<svg xmlns="http://www.w3.org/2000/svg"  viewBox="0 0 64 64" width="64px" height="64px" baseProfile="basic"><linearGradient id="WvNxhQ_q4lInwt6_uwFnLa" x1="32" x2="32" y1="59" y2="5" gradientUnits="userSpaceOnUse"><stop offset="0" stop-color="#1A6DFF"/><stop offset="1" stop-color="#C822FF"/></linearGradient><path fill="url(#WvNxhQ_q4lInwt6_uwFnLa)" d="M32,59C17.112,59,5,46.888,5,32S17.112,5,32,5s27,12.112,27,27S46.888,59,32,59z M32,7	C18.215,7,7,18.215,7,32s11.215,25,25,25s25-11.215,25-25S45.785,7,32,7z"/><linearGradient id="WvNxhQ_q4lInwt6_uwFnLb" x1="32" x2="32" y1="55" y2="9" gradientUnits="userSpaceOnUse"><stop offset="0" stop-color="#8ab4ff"/><stop offset="1" stop-color="#e492ff"/></linearGradient><circle cx="32" cy="32" r="23" fill="url(#WvNxhQ_q4lInwt6_uwFnLb)"/><path fill="#fff" d="M30.531,38.187c-1.973,0-3.178-1.178-3.178-2.795c0-2.247,2.274-4.192,4.795-4.74l-5.863-14.438	h10.219l1.863,3.616h-7.151l4.274,10.411c0.356,0.822,0.575,1.726,0.575,2.603C36.038,35.94,32.969,38.187,30.531,38.187	L30.531,38.187z M41.137,23.753l4.466,7.656c0.849,1.526,1.342,3.242,1.397,5.013c0,5.585-4.438,9.618-10.712,9.618h-8.575	C21.411,46.04,17,42.007,17,36.422c0.055-1.744,0.521-3.46,1.37-5.013l4.466-7.656h4.192l-5.233,9.018	c-0.63,1.09-0.986,2.316-1.041,3.569c0,3.569,2.438,6.076,7.068,6.076h8.329c4.63,0,7.068-2.534,7.068-6.076	c-0.027-1.253-0.384-2.479-1.041-3.569l-5.205-9.018H41.137z"/></svg>