<svg xmlns="http://www.w3.org/2000/svg"  viewBox="0 0 64 64" width="64px" height="64px"><linearGradient id="4a-aPR4YUCL-BmuagfpYua" x1="32.667" x2="32.667" y1="12.098" y2="48.858" gradientUnits="userSpaceOnUse"><stop offset="0" stop-color="#8ab4ff"/><stop offset="1" stop-color="#e492ff"/></linearGradient><path fill="url(#4a-aPR4YUCL-BmuagfpYua)" d="M54.488,23.112c-2.37,1.159-4.987,1.222-6.887-0.08c-0.945-0.648-1.589-1.556-1.942-2.603	C44.587,23.753,42.337,26,39.667,26C35.928,26,33,21.608,33,16c0-0.701,0.046-1.383,0.133-2.041c-1.844-0.79-5.037-1.959-7.8-1.959	c-5.333,0-16,3.303-16,25.333h4c0.642-4.656,3.725-8.99,5.17-9.303c-0.597,0.853-1.17,2.279-1.17,4.636c0,1,0.524,2.5,1.251,3.333	h2.749C20.857,35.5,20,34.667,20,33.333c0-2,1.613-2.903,1.667-2.935c0.043-0.025,0.076-0.061,0.117-0.089	c1.7,0.808,4.222,1.537,7.82,1.662c0.45,1.834,1.518,4.276,3.519,5.877c0.035-0.083,0.993-1.712,1.453-2.437	c-0.648-0.923-0.976-2.309-1.128-3.472c5.732-0.261,7.884-1.272,7.884-1.272c0.667,0.667,2,1.333,4,1.333C50.665,32,56,28,56,26.667	C56,25.942,55.447,24.542,54.488,23.112z"/><linearGradient id="4a-aPR4YUCL-BmuagfpYub" x1="34.136" x2="34.136" y1="12.098" y2="48.858" gradientUnits="userSpaceOnUse"><stop offset="0" stop-color="#8ab4ff"/><stop offset="1" stop-color="#e492ff"/></linearGradient><path fill="url(#4a-aPR4YUCL-BmuagfpYub)" d="M24,38.167L22.667,36C24,34.333,24,31.548,24,30.667h4.167	C28.167,32.167,26.539,36.051,24,38.167z M37.335,37.833c-0.412,0-0.819-0.191-1.08-0.549l-1.333-1.833	c-0.433-0.595-0.301-1.429,0.293-1.861c0.595-0.433,1.429-0.303,1.863,0.295l1.333,1.833c0.433,0.595,0.301,1.429-0.293,1.861	C37.881,37.751,37.607,37.833,37.335,37.833z M41.167,28.667h-4.833c0,3.833,5.916,6.963,6.333,7.333l2.939-0.992	C44.453,33.984,41.499,32,41.167,28.667z"/><linearGradient id="4a-aPR4YUCL-BmuagfpYuc" x1="20" x2="20" y1="12.098" y2="48.858" gradientUnits="userSpaceOnUse"><stop offset="0" stop-color="#8ab4ff"/><stop offset="1" stop-color="#e492ff"/></linearGradient><path fill="url(#4a-aPR4YUCL-BmuagfpYuc)" d="M22.667,57.333c-4.952,0-13.333-4.212-13.333-20h4c-0.125,1.44-0.021,2.771,0,4	c0.167,10.167,5.8,13.333,9.333,13.333C27.94,54.667,28,50.671,28,50.5c0-3.336-1.984-3.833-3.167-3.833	c-2.107,0-2.167,1.496-2.167,1.667c0,0.456,0.144,1,0.833,1c0.283,0,0.443-0.08,0.507-0.132C24.072,48.528,24.641,48,25.333,48	c0.736,0,1.333,0.596,1.333,1.333c0,1.311-1.184,2.667-3.167,2.667c-2.028,0-3.5-1.541-3.5-3.667C20,46.18,21.66,44,24.833,44	c2.691,0,5.833,1.701,5.833,6.5C30.667,53.248,28.536,57.333,22.667,57.333z"/><linearGradient id="4a-aPR4YUCL-BmuagfpYud" x1="53.887" x2="52.72" y1="4.935" y2="26.666" gradientUnits="userSpaceOnUse"><stop offset="0" stop-color="#1A6DFF"/><stop offset="1" stop-color="#C822FF"/></linearGradient><path fill="url(#4a-aPR4YUCL-BmuagfpYud)" d="M61.248,13.727c-0.284-1.892-1.264-3.5-2.763-4.527V9.197c-3.487-2.389-8.947-1.044-12.165,3	c-0.127,0.16-0.238,0.326-0.355,0.49c0.235,1.034,0.368,2.144,0.368,3.312c0,2.325-0.509,4.433-1.364,6.114	c0.473,0.799,1.105,1.486,1.879,2.017c1.172,0.805,2.565,1.187,4.021,1.187c2.881,0,6.007-1.496,8.145-4.183	C60.803,18.887,61.616,16.187,61.248,13.727z M56.927,19.473c-2.365,2.973-6.212,4.077-8.571,2.459	c-1.129-0.772-1.511-1.907-1.633-2.72c-0.259-1.731,0.355-3.683,1.684-5.353c1.625-2.044,3.952-3.205,6.013-3.205	c0.937,0,1.82,0.24,2.557,0.744c1.129,0.775,1.511,1.908,1.633,2.723C58.869,15.852,58.256,17.803,56.927,19.473z"/><linearGradient id="4a-aPR4YUCL-BmuagfpYue" x1="56.586" x2="55.419" y1="5.08" y2="26.811" gradientUnits="userSpaceOnUse"><stop offset="0" stop-color="#1A6DFF"/><stop offset="1" stop-color="#C822FF"/></linearGradient><path fill="url(#4a-aPR4YUCL-BmuagfpYue)" d="M56,14.667c-0.736,0-1.333,0.597-1.333,1.333c0,0.736,0.597,1.333,1.333,1.333	c0.736,0,1.333-0.597,1.333-1.333C57.333,15.264,56.736,14.667,56,14.667z"/><linearGradient id="4a-aPR4YUCL-BmuagfpYuf" x1="32" x2="32" y1="33.688" y2="42.251" gradientUnits="userSpaceOnUse"><stop offset="0" stop-color="#1A6DFF"/><stop offset="1" stop-color="#C822FF"/></linearGradient><path fill="url(#4a-aPR4YUCL-BmuagfpYuf)" d="M63.372,38.02l-4.705-0.947L53.333,36H8H5.333H4H2.667C1.193,36,0,37.193,0,38.667	s1.193,2.667,2.667,2.667H4h1.333H8h44l6.667-1.184l4.705-0.836C64.209,39.145,64.209,38.188,63.372,38.02z"/><linearGradient id="4a-aPR4YUCL-BmuagfpYug" x1="40.597" x2="39.43" y1="4.222" y2="25.953" gradientUnits="userSpaceOnUse"><stop offset="0" stop-color="#1A6DFF"/><stop offset="1" stop-color="#C822FF"/></linearGradient><path fill="url(#4a-aPR4YUCL-BmuagfpYug)" d="M40,26.667c-4.485,0-8-4.977-8-11.333S35.515,4,40,4c4.485,0,8,4.977,8,11.333 S44.485,26.667,40,26.667z M40,6.667c-2.891,0-5.333,3.969-5.333,8.667S37.109,24,40,24c2.891,0,5.333-3.969,5.333-8.667 S42.891,6.667,40,6.667z"/><linearGradient id="4a-aPR4YUCL-BmuagfpYuh" x1="38.674" x2="37.507" y1="4.119" y2="25.849" gradientUnits="userSpaceOnUse"><stop offset="0" stop-color="#1A6DFF"/><stop offset="1" stop-color="#C822FF"/></linearGradient><path fill="url(#4a-aPR4YUCL-BmuagfpYuh)" d="M38,14.667c-1.105,0-2,0.895-2,2s0.895,2,2,2s2-0.895,2-2S39.105,14.667,38,14.667z"/><linearGradient id="4a-aPR4YUCL-BmuagfpYui" x1="18.664" x2="18.664" y1="12.098" y2="48.858" gradientUnits="userSpaceOnUse"><stop offset="0" stop-color="#8ab4ff"/><stop offset="1" stop-color="#e492ff"/></linearGradient><path fill="url(#4a-aPR4YUCL-BmuagfpYui)" d="M19.997,42.667c-0.2,0-0.403-0.045-0.593-0.14C19.265,42.457,16,40.784,16,37.333	c0-1.988,1.373-4,4-4V36c-1.16,0-1.333,0.836-1.333,1.333c0,1.789,1.917,2.801,1.937,2.811c0.651,0.336,0.913,1.139,0.58,1.791	C20.949,42.399,20.481,42.667,19.997,42.667z"/><linearGradient id="4a-aPR4YUCL-BmuagfpYuj" x1="40.565" x2="40.565" y1="12.098" y2="48.858" gradientUnits="userSpaceOnUse"><stop offset="0" stop-color="#8ab4ff"/><stop offset="1" stop-color="#e492ff"/></linearGradient><path fill="url(#4a-aPR4YUCL-BmuagfpYuj)" d="M34.667,42.667c-0.341,0-0.683-0.131-0.944-0.391c-0.913-0.915-1.889-2.561-1.889-4.443	c0-2.565,1.791-4.5,4.167-4.5c0.736,0,1.333,0.596,1.333,1.333C37.333,35.404,36.736,36,36,36c-0.747,0-1.5,0.567-1.5,1.833	c0,1.141,0.697,2.145,1.109,2.557c0.52,0.521,0.52,1.365-0.001,1.885C35.348,42.536,35.007,42.667,34.667,42.667z M46,41.333	L46,41.333c-0.5,0-0.807-0.599-0.832-0.644C44.941,40.277,44.503,40,44,40c-0.736,0-1.333,0.596-1.333,1.333	C42.667,42.405,43.555,44,46,44c1.943,0,2.967-1.516,3.265-2.412c0.028-0.085,0.021-0.169,0.032-0.255H46z M49.296,36	c-0.011-0.085-0.003-0.171-0.032-0.255c-0.297-0.896-1.321-2.412-3.264-2.412c-2.445,0-3.333,1.595-3.333,2.667	c0,0.737,0.597,1.333,1.333,1.333c0.503,0,0.94-0.277,1.168-0.689C45.193,36.599,45.5,36,46,36H49.296z"/></svg>