<svg xmlns="http://www.w3.org/2000/svg"  viewBox="0 0 64 64" width="64px" height="64px" baseProfile="basic"><linearGradient id="5sGglOszUD4sp8pqSmmgpa" x1="26.854" x2="26.854" y1="21.011" y2="50.017" gradientUnits="userSpaceOnUse"><stop offset="0" stop-color="#8ab4ff"/><stop offset="1" stop-color="#e492ff"/></linearGradient><path fill="url(#5sGglOszUD4sp8pqSmmgpa)" d="M45.722,21.011L29.165,34.194c-1.681,1.338-4.082,1.335-5.758-0.008L7.987,21.835v23.673	c0,2.49,2.048,4.509,4.574,4.509h33.161V21.011z"/><linearGradient id="5sGglOszUD4sp8pqSmmgpb" x1="32" x2="32" y1="11.983" y2="52.017" gradientUnits="userSpaceOnUse"><stop offset="0" stop-color="#1A6DFF"/><stop offset="1" stop-color="#C822FF"/></linearGradient><path fill="url(#5sGglOszUD4sp8pqSmmgpb)" d="M9.135,13.983c0.237,0,0.479,0.074,0.694,0.237l19.235,15.453	c0.841,0.676,1.865,1.014,2.889,1.014c1.018,0,2.035-0.334,2.874-1.001l19.324-15.387c0.219-0.174,0.469-0.252,0.713-0.252	c0.591,0,1.149,0.459,1.149,1.129v30.332c0,2.49-2.048,4.509-4.574,4.509H12.561c-2.526,0-4.574-2.019-4.574-4.509V21.835v-6.723	C7.987,14.443,8.543,13.983,9.135,13.983 M9.136,11.983L9.136,11.983c-0.805,0-1.572,0.302-2.161,0.851	c-0.637,0.594-0.988,1.403-0.988,2.278v6.723v23.673c0,3.589,2.949,6.509,6.574,6.509h38.878c3.625,0,6.574-2.92,6.574-6.509V15.176	c0-1.726-1.413-3.129-3.149-3.129c-0.716,0-1.394,0.238-1.959,0.688L33.582,28.121c-0.458,0.365-1.036,0.566-1.628,0.566	c-0.596,0-1.177-0.203-1.637-0.573L11.082,12.661c-0.013-0.011-0.027-0.021-0.041-0.032C10.487,12.206,9.828,11.983,9.136,11.983	L9.136,11.983z"/></svg>