<svg xmlns="http://www.w3.org/2000/svg"  viewBox="0 0 64 64" width="64px" height="64px" baseProfile="basic"><linearGradient id="D_32Y7IDUuUkpERBkFtXga" x1="32.148" x2="32.148" y1="4.314" y2="68.041" gradientUnits="userSpaceOnUse"><stop offset="0" stop-color="#1A6DFF"/><stop offset="1" stop-color="#C822FF"/></linearGradient><path fill="url(#D_32Y7IDUuUkpERBkFtXga)" d="M41.443,53.168c-2.347,1.389-5.123,2.129-8.175,2.129c-0.218,0-0.441-0.004-0.668-0.012 c-0.779-0.025-1.545-0.107-2.294-0.248C28.748,56.266,26.783,57,24.65,57c-5.044,0-9.146-4.103-9.146-9.146V35.659 c0-1.433,0.323-2.787,0.904-3.994c-0.904-2.857-0.904-5.569-0.904-6.981l-0.001-0.32c-0.011-2.067-0.033-6.447,2.44-10.274 l0.298-0.441c0.461-0.653,1-1.287,1.63-1.886c1.845-1.753,5.101-3.786,10.128-3.53c0.557,0.03,1.196,0.099,1.886,0.233 C33.316,7.538,35.019,7,36.846,7c5.044,0,9.146,4.103,9.146,9.146v13.415c0,0.425-0.03,0.846-0.088,1.258 c2.855,3.999,4.117,10.23,1.341,15.949c-0.937,1.932-2.188,3.569-3.692,4.878L41.443,53.168z"/><linearGradient id="D_32Y7IDUuUkpERBkFtXgb" x1="32.155" x2="32.155" y1="7.636" y2="58.782" gradientUnits="userSpaceOnUse"><stop offset="0" stop-color="#8ab4ff"/><stop offset="1" stop-color="#e492ff"/></linearGradient><path fill="url(#D_32Y7IDUuUkpERBkFtXgb)" d="M44.504,45.439 c-2.183,4.488-6.488,6.963-11.744,6.805c-1.207-0.036-2.317-0.244-3.342-0.585c-1.122,1.402-2.841,2.293-4.768,2.293 c-3.366,0-6.098-2.732-6.098-6.098V35.659c0-1.354,0.439-2.598,1.195-3.622c-1.195-2.671-1.195-5.537-1.195-7.354v-0.329 c-0.012-2.293-0.037-7.098,3.415-10.39c1.415-1.341,3.927-2.878,7.89-2.683c0.988,0.049,1.902,0.219,2.744,0.488 c1.098-1.061,2.598-1.719,4.244-1.719c3.366,0,6.098,2.732,6.098,6.098v13.415c0,0.707-0.122,1.378-0.341,2.012 C45.455,34.634,47.004,40.281,44.504,45.439z"/><g><path fill="#fff" d="M24.65,49.073c-0.674,0-1.22-0.545-1.22-1.22V35.659c0-0.631,0.482-1.158,1.111-1.214 c0.634-0.073,1.198,0.376,1.309,0.999c0.017,0.093,1.736,9.312,7.136,9.483c2.408,0.052,4.018-0.803,4.933-2.688 c1.155-2.379,0.104-4.898-0.717-5.719c-1.501-1.501-4.142-2.103-6.473-2.636c-1.01-0.23-1.965-0.448-2.807-0.729 c-4.492-1.497-4.492-5.365-4.492-8.473l-0.001-0.348c-0.01-1.867-0.025-4.994,1.907-6.832c1.047-0.996,2.488-1.446,4.258-1.355 c2.999,0.163,4.838,2.419,6.032,5.048v-5.05c0-0.674,0.545-1.22,1.22-1.22s1.22,0.545,1.22,1.22v13.415 c0,0.576-0.404,1.074-0.968,1.193c-0.573,0.124-1.135-0.175-1.367-0.701c-0.197-0.448-0.36-1.153-0.584-2.129 c-0.736-3.196-2.106-9.146-5.683-9.339c-1.109-0.069-1.897,0.164-2.444,0.685c-1.169,1.114-1.158,3.485-1.15,5.054l0.001,0.36 c0,3.333,0.131,5.263,2.825,6.161c0.729,0.243,1.627,0.448,2.577,0.665c2.652,0.605,5.657,1.29,7.655,3.288 c1.486,1.486,2.837,5.109,1.186,8.509c-0.909,1.872-2.832,4.065-6.845,4.065c-0.117,0-0.236-0.001-0.357-0.006 c-3.344-0.105-5.583-2.384-7.041-4.885v5.375C25.87,48.528,25.324,49.073,24.65,49.073z"/></g></svg>